<?xml version="1.0" encoding="UTF-8"?><svg id="Layer_2" xmlns="http://www.w3.org/2000/svg" viewBox="0 0 151 182.54"><defs><style>.cls-1{fill:none;stroke:#000;stroke-miterlimit:10;}</style></defs><g id="Layer_1-2"><path class="cls-1" d="M.5,87.93v81.94c0,6.72,5.45,12.18,12.18,12.18h0c3.41,0,6.66-1.43,8.97-3.94l42.09-45.86c6.32-6.89,17.19-6.89,23.51,0l42.02,45.84c2.31,2.52,5.56,3.95,8.97,3.95h.08c6.73,0,12.18-5.45,12.18-12.18v-81.08c0-12.69-5.04-24.86-14.01-33.83L86.7,5.17c-6.2-6.2-16.24-6.23-22.48-.08L14.75,53.86C5.63,62.85.5,75.12.5,87.93Z"/></g></svg>